<?xml version="1.0" standalone="no"?>
<!DOCTYPE svg PUBLIC "-//W3C//DTD SVG 20010904//EN"
 "http://www.w3.org/TR/2001/REC-SVG-20010904/DTD/svg10.dtd">
<svg version="1.0" xmlns="http://www.w3.org/2000/svg"
 width="600.000000pt" height="600.000000pt" viewBox="0 0 600.000000 600.000000"
 preserveAspectRatio="xMidYMid meet">

<g transform="translate(0.000000,600.000000) scale(0.100000,-0.100000)"
fill="#000000" stroke="none">
<path d="M2363 4905 c-17 -18 4 -35 44 -35 32 0 41 13 25 35 -10 15 -55 15
-69 0z"/>
<path d="M2389 4840 c-8 -14 -18 -33 -22 -42 -3 -10 -11 -18 -16 -18 -10 0 -9
14 4 43 10 24 1 31 -29 23 -22 -5 -25 -10 -20 -35 4 -16 1 -32 -5 -35 -18 -11
-13 -25 9 -23 11 1 20 5 20 9 0 4 5 8 10 8 6 0 10 -12 10 -26 0 -22 -4 -26
-22 -21 -13 2 -32 8 -43 13 -18 7 -18 6 3 -20 12 -16 22 -39 22 -51 0 -19 7
-24 35 -27 29 -3 35 -1 35 14 0 24 47 25 52 1 2 -11 14 -16 36 -17 27 -1 32 3
32 22 0 14 4 21 11 16 6 -4 9 1 7 13 -2 11 3 27 9 35 11 12 9 19 -7 38 -11 13
-20 33 -20 45 0 24 -17 45 -37 45 -7 0 -13 -7 -13 -15 0 -8 9 -15 20 -15 11 0
20 -4 20 -10 0 -5 -4 -10 -10 -10 -5 0 -10 -9 -10 -21 0 -36 -30 4 -31 43 -1
23 -3 26 -6 11 -6 -32 -21 -29 -25 4 l-3 27 -16 -24z m15 -64 c-3 -7 6 -21 20
-30 41 -26 32 -41 -24 -42 -44 0 -49 2 -44 18 4 15 44 67 51 68 1 0 0 -6 -3
-14z m99 -43 c-7 -2 -19 -2 -25 0 -7 3 -2 5 12 5 14 0 19 -2 13 -5z m-154 -42
c8 -5 11 -16 8 -25 -9 -24 -24 -19 -29 9 -6 27 -1 30 21 16z m127 -16 c1 -16
-3 -25 -12 -25 -20 0 -30 30 -13 41 21 13 24 11 25 -16z"/>
<path d="M2530 4810 c0 -5 5 -10 10 -10 6 0 10 5 10 10 0 6 -4 10 -10 10 -5 0
-10 -4 -10 -10z"/>
<path d="M2070 4779 c-22 -17 -29 -18 -58 -7 -30 12 -34 11 -63 -19 -26 -25
-29 -34 -20 -50 10 -20 6 -33 -11 -33 -4 0 -8 7 -8 16 0 14 -2 14 -15 1 -8 -9
-20 -18 -27 -21 -10 -5 -10 -7 0 -12 17 -8 15 -50 -4 -80 -14 -20 -18 -22 -28
-10 -19 24 -47 23 -67 -4 -23 -31 -43 -107 -59 -225 -19 -144 -55 -234 -105
-264 -20 -11 -38 -15 -50 -10 -17 6 -17 8 -3 8 11 1 15 6 11 16 -5 14 -7 14
-23 0 -38 -34 -66 12 -55 90 6 35 16 50 57 86 28 24 57 58 63 74 34 83 26 101
-15 34 -14 -23 -53 -66 -88 -96 -34 -30 -67 -65 -74 -76 -14 -26 -13 -71 3
-108 11 -28 29 -39 29 -19 0 16 30 12 37 -5 8 -22 -25 -55 -55 -55 -30 0 -99
72 -107 112 -7 32 -34 37 -59 12 -18 -17 -22 -39 -6 -29 6 4 13 -7 16 -25 7
-32 37 -60 66 -60 15 0 35 -17 27 -24 -2 -2 -19 -6 -37 -9 -29 -6 -37 -2 -62
25 -21 23 -28 38 -24 55 6 21 4 22 -17 14 -21 -7 -24 -14 -21 -52 4 -51 25
-79 59 -79 31 0 30 -16 -2 -22 -25 -5 -62 22 -48 35 3 4 1 7 -5 7 -6 0 -20
-13 -30 -28 -19 -26 -19 -32 -7 -97 7 -41 9 -80 4 -97 -4 -16 -8 -66 -8 -112
1 -64 4 -83 15 -83 8 0 14 4 14 7 0 4 13 10 30 13 47 10 68 38 63 86 -2 24 0
41 6 41 6 0 11 6 11 14 0 12 89 108 131 142 8 6 23 22 35 35 50 57 100 78 272
114 63 13 117 26 120 29 12 13 -8 18 -23 6 -8 -7 -21 -10 -29 -7 -7 3 -31 1
-52 -5 -22 -5 -49 -9 -61 -9 -13 0 -23 -4 -23 -10 0 -6 -9 -9 -20 -6 -11 3
-22 1 -25 -3 -3 -5 -24 -11 -48 -15 -23 -4 -46 -11 -52 -15 -5 -4 -32 -13 -60
-20 -73 -18 -190 -78 -241 -123 -43 -38 -44 -38 -32 -11 30 72 109 127 253
178 44 15 89 32 100 36 11 5 48 14 83 21 34 6 62 15 62 20 0 5 10 9 23 9 107
2 127 6 127 20 0 17 -55 27 -64 11 -9 -14 -45 -1 -40 14 4 9 0 12 -13 9 -45
-12 -54 59 -14 105 28 33 44 27 37 -13 -7 -37 9 -59 25 -35 8 12 13 6 11 -13
-3 -17 30 -14 93 8 81 28 89 34 47 34 -22 0 -32 6 -37 20 -3 11 -11 20 -16 20
-5 0 -9 -9 -9 -20 0 -14 -7 -20 -24 -20 -20 0 -23 4 -19 21 5 18 2 21 -23 19
-43 -3 -43 -3 -34 30 5 18 5 30 -1 30 -5 0 -9 -12 -9 -26 0 -14 -4 -23 -10
-19 -5 3 -10 30 -10 59 0 59 21 90 72 108 18 7 34 22 43 44 8 19 19 34 24 34
6 0 20 9 31 20 11 11 16 20 10 20 -6 0 -6 9 0 26 6 14 7 31 3 37 -4 7 0 8 11
4 10 -4 22 -7 28 -7 6 0 7 -7 4 -16 -4 -10 -2 -13 6 -8 8 5 9 -2 4 -22 -4 -19
-3 -24 2 -15 8 10 10 11 14 1 3 -9 13 -11 31 -6 26 6 27 7 13 34 -8 15 -33 47
-56 70 -33 35 -39 47 -29 58 6 8 20 14 31 14 17 0 19 -5 13 -32 -6 -31 -5 -32
10 -14 8 11 15 23 15 28 0 13 20 9 36 -7 9 -9 12 -23 8 -40 -5 -21 -3 -24 10
-19 11 4 25 -3 41 -22 14 -16 25 -32 25 -36 0 -15 123 -128 139 -128 10 1 0
16 -30 43 -65 60 -109 125 -109 160 0 32 37 100 49 92 5 -2 11 -27 14 -54 7
-59 26 -92 86 -147 39 -37 43 -44 38 -73 -5 -23 -3 -33 8 -37 8 -4 15 -14 15
-25 0 -19 -38 -52 -51 -43 -4 2 -21 6 -38 8 -21 2 -31 -1 -31 -10 0 -8 -7 -14
-15 -14 -19 0 -20 36 -1 43 7 3 26 4 40 3 15 -2 24 -1 21 2 -2 3 0 11 6 18 13
16 -7 30 -24 15 -8 -6 -18 -6 -27 -1 -8 6 -33 9 -55 9 -22 0 -34 -3 -27 -6 18
-7 15 -20 -6 -25 -15 -4 -18 1 -18 28 0 18 -8 42 -19 54 -24 27 -76 27 -93 0
-24 -39 -3 -46 70 -24 13 4 16 1 12 -10 -4 -11 -1 -16 10 -16 9 0 16 -4 16
-10 0 -5 -11 -10 -25 -10 -18 0 -23 4 -19 15 4 8 1 15 -4 15 -6 0 -12 -10 -14
-22 -3 -20 -4 -20 -19 -6 -8 9 -24 18 -35 20 -10 2 -19 8 -20 13 -4 38 -18 75
-31 79 -8 3 -13 0 -11 -7 1 -6 -6 -24 -15 -39 -21 -31 -14 -93 12 -107 22 -12
183 -6 209 8 34 18 42 13 42 -24 0 -28 4 -35 20 -35 33 0 68 -22 75 -47 8 -33
-2 -45 -26 -33 -20 11 -39 6 -39 -11 0 -16 48 -59 65 -59 9 0 14 4 11 9 -3 5
1 11 9 15 8 3 12 12 9 21 -8 19 19 21 34 2 16 -18 -1 -39 -24 -31 -16 6 -15 3
5 -19 14 -15 30 -27 38 -27 7 0 13 -6 13 -13 0 -8 7 -14 15 -14 22 0 19 35 -4
42 -15 4 -18 15 -18 60 0 53 1 55 25 50 14 -2 28 -8 31 -14 3 -5 17 -11 31
-12 33 -5 40 -43 10 -59 -16 -9 -21 -8 -26 5 -3 8 -4 22 0 30 4 13 2 13 -14 5
-10 -5 -27 -7 -37 -4 -11 4 -5 -6 15 -25 38 -36 46 -37 112 -15 33 11 50 22
54 37 7 28 -19 56 -45 50 -18 -5 -20 -2 -17 23 2 21 9 30 26 32 49 7 15 32
-44 32 -25 0 -38 6 -50 25 -16 24 -16 27 2 40 10 8 25 12 32 10 7 -3 25 6 40
20 15 14 31 23 37 22 14 -5 57 41 85 91 23 40 49 59 36 27 -3 -9 1 -18 10 -22
22 -8 29 4 11 22 -9 9 -14 24 -11 38 3 12 8 32 11 44 3 13 -3 29 -17 43 -18
18 -20 24 -9 31 24 15 36 10 41 -16 3 -14 2 -25 -2 -25 -5 0 -6 -9 -3 -20 7
-25 11 -25 34 2 18 20 20 20 38 4 10 -10 18 -25 17 -34 -3 -20 -42 -28 -60
-13 -10 8 -17 7 -27 -6 -7 -10 -10 -15 -5 -11 9 8 66 -11 66 -22 0 -4 -7 -13
-15 -20 -24 -20 -19 -43 7 -35 17 6 20 4 15 -9 -4 -9 -3 -16 1 -17 4 0 15 -2
24 -4 9 -2 19 3 22 10 3 9 0 12 -10 8 -22 -8 -17 21 9 45 27 26 43 28 63 7 15
-15 15 -16 -8 -19 -7 0 -14 -10 -16 -21 -2 -11 -9 -26 -14 -32 -7 -9 -7 -13 1
-13 6 0 11 5 11 10 0 18 32 11 51 -11 10 -11 21 -35 25 -52 7 -33 39 -66 64
-67 17 0 49 -59 42 -78 -5 -16 -50 7 -57 30 -9 28 -46 44 -59 26 -25 -33 -62
-49 -90 -39 -30 12 -34 1 -8 -21 36 -32 136 -45 160 -21 19 19 32 16 32 -7 0
-28 18 -25 26 5 8 33 23 32 16 -1 -4 -25 25 -94 40 -94 5 0 8 -8 8 -18 0 -22
-30 -52 -52 -52 -9 0 -21 -7 -28 -14 -8 -11 -18 -12 -35 -6 -14 5 -27 5 -30 1
-8 -14 32 -25 130 -35 33 -4 62 -11 63 -16 2 -6 14 -10 26 -10 35 0 303 -84
316 -99 3 -3 15 -11 27 -18 17 -10 22 -9 27 3 3 8 -1 17 -9 20 -26 10 -16 21
15 16 17 -2 27 -9 23 -15 -4 -6 4 -8 21 -5 14 3 26 2 26 -2 0 -11 -32 -23 -52
-21 -10 1 -18 -3 -18 -8 0 -6 3 -11 8 -11 4 0 22 -14 40 -31 30 -28 47 -20 20
10 -11 11 -10 13 5 8 10 -4 17 -1 17 6 0 7 9 30 21 51 23 43 19 77 -6 56 -8
-7 -15 -22 -15 -34 -1 -20 -1 -20 -11 -3 -11 18 -9 45 5 77 4 10 -4 21 -23 32
-29 16 -29 16 -25 -5 10 -56 -35 -100 -92 -89 -37 7 -30 32 9 32 41 0 58 11
56 36 -4 40 1 54 21 54 11 0 20 4 20 10 0 5 -6 7 -14 4 -7 -3 -16 2 -19 10
-11 28 -34 17 -45 -23 -7 -21 -23 -46 -36 -54 -13 -9 -30 -22 -37 -30 -25 -25
-65 -26 -95 -2 -37 29 -24 49 26 41 l37 -6 6 45 c10 71 -9 100 -124 185 -41
31 -75 68 -99 110 -5 8 -11 12 -14 9 -10 -10 43 -107 69 -125 15 -11 46 -38
71 -62 43 -42 56 -72 31 -72 -9 0 -12 -11 -9 -35 4 -32 2 -36 -27 -41 -17 -4
-34 -11 -37 -15 -9 -14 -50 -10 -64 6 -7 8 -18 15 -24 15 -6 0 -16 8 -21 19
-64 119 -80 172 -100 326 -4 28 -15 70 -26 94 -21 49 -23 54 -10 47 4 -3 16 0
26 8 16 11 14 13 -15 13 -17 0 -35 5 -39 12 -11 17 -39 3 -43 -22 -2 -12 -11
-23 -20 -25 -40 -8 -44 88 -5 105 12 5 33 6 47 2 25 -7 25 -7 2 -8 -28 -1 -19
-21 9 -21 24 0 25 22 0 44 -17 16 -22 16 -54 2 -35 -14 -36 -14 -45 13 -16 44
-128 91 -147 61 -11 -18 -33 -10 -39 15 -4 15 -14 25 -24 25 -24 0 -87 -65
-73 -74 6 -4 16 -4 21 -1 14 9 12 -6 -3 -24 -8 -9 -20 -42 -27 -74 -12 -51
-21 -65 -69 -108 -57 -51 -93 -60 -99 -26 -2 11 14 34 44 61 45 41 84 115 84
158 0 9 7 21 17 26 14 8 14 10 -6 17 -29 9 -49 -8 -32 -28 9 -11 8 -17 -4 -27
-8 -7 -15 -16 -15 -21 0 -14 -52 -69 -65 -69 -7 0 -20 -16 -31 -35 -23 -43
-30 -44 -37 -5 -5 22 -11 28 -22 23 -12 -4 -13 -9 -6 -16 15 -15 14 -27 -4
-27 -8 0 -15 7 -15 15 0 8 -5 15 -11 15 -5 0 -7 5 -3 11 4 7 0 9 -14 5 -16 -5
-31 4 -67 41 -39 40 -46 52 -41 76 4 19 0 36 -12 52 -15 21 -20 22 -42 10 -60
-30 -79 -37 -89 -31 -7 5 -6 14 5 31 20 30 6 38 -26 14z m774 -65 c10 -26 7
-34 -11 -34 -15 0 -15 2 -4 9 12 8 12 12 2 25 -8 9 -9 16 -3 16 5 0 13 -7 16
-16z m56 -31 c0 -20 -3 -24 -11 -16 -7 7 -9 19 -6 27 10 24 17 19 17 -11z
m-523 -195 c-3 -8 -6 -5 -6 6 -1 11 2 17 5 13 3 -3 4 -12 1 -19z m65 0 c-7 -7
-12 -8 -12 -2 0 14 12 26 19 19 2 -3 -1 -11 -7 -17z m-14 -156 c3 -16 -2 -22
-16 -22 -24 0 -35 23 -19 39 16 16 31 8 35 -17z m-64 -17 c15 -40 -35 -69 -52
-30 -7 16 -7 26 1 34 16 16 44 14 51 -4z m138 -10 c4 -18 0 -26 -15 -31 -27
-9 -52 22 -34 42 19 22 44 16 49 -11z m-1267 -425 c-3 -5 -11 -10 -16 -10 -6
0 -7 5 -4 10 3 6 11 10 16 10 6 0 7 -4 4 -10z m65 -254 c0 -3 -4 -8 -10 -11
-5 -3 -10 -1 -10 4 0 6 5 11 10 11 6 0 10 -2 10 -4z"/>
<path d="M1752 4660 c-42 -30 -55 -60 -27 -60 9 0 21 11 27 25 9 19 14 22 25
14 10 -9 17 -8 28 1 18 15 20 34 3 24 -8 -5 -9 -2 -5 9 9 25 -5 21 -51 -13z"/>
<path d="M2395 4640 c3 -5 8 -10 11 -10 2 0 4 5 4 10 0 6 -5 10 -11 10 -5 0
-7 -4 -4 -10z"/>
<path d="M2050 4629 c0 -8 7 -24 16 -35 14 -18 15 -18 8 6 -8 31 -24 50 -24
29z"/>
<path d="M3060 4628 c0 -9 5 -20 11 -23 17 -11 20 0 4 21 -13 17 -14 17 -15 2z"/>
<path d="M2340 4621 c0 -6 5 -13 10 -16 6 -3 10 1 10 9 0 9 -4 16 -10 16 -5 0
-10 -4 -10 -9z"/>
<path d="M2390 4610 c0 -5 4 -10 9 -10 6 0 13 5 16 10 3 6 -1 10 -9 10 -9 0
-16 -4 -16 -10z"/>
<path d="M1788 4603 c6 -2 18 -2 25 0 6 3 1 5 -13 5 -14 0 -19 -2 -12 -5z"/>
<path d="M2100 4595 c-6 -8 -9 -19 -5 -25 3 -5 -1 -10 -10 -10 -9 0 -13 -4
-10 -10 12 -19 38 -11 32 10 -3 13 0 20 9 20 8 0 14 7 14 15 0 19 -14 19 -30
0z"/>
<path d="M1707 4583 c-4 -3 -7 -16 -6 -27 0 -19 1 -19 10 3 10 24 8 36 -4 24z"/>
<path d="M2136 4531 c-11 -4 -15 -10 -10 -13 5 -4 18 0 29 8 20 15 12 17 -19
5z"/>
<path d="M2696 4505 c-20 -26 -27 -45 -24 -66 5 -33 -11 -40 -19 -8 -5 18 -11
19 -47 14 -34 -6 -86 -29 -86 -38 0 -1 30 -2 68 -3 76 0 132 -23 132 -53 0
-15 7 -19 33 -17 30 1 32 -1 30 -29 l-2 -30 14 30 c12 28 12 31 -8 42 -12 7
-30 12 -39 13 -18 0 -34 18 -24 27 3 4 31 1 62 -6 53 -12 57 -12 80 10 29 27
43 87 23 100 -21 13 -25 11 -37 -13 -6 -13 -11 -17 -11 -10 -1 6 -6 12 -12 12
-6 0 -9 -6 -6 -12 7 -20 -12 -48 -28 -42 -20 8 -19 34 0 34 8 0 15 3 15 6 0 8
-43 43 -54 44 -5 0 -14 7 -20 16 -11 14 -16 11 -40 -21z m71 -52 c2 -6 -3 -13
-11 -16 -10 -4 -14 0 -13 14 1 20 18 21 24 2z m-39 -5 c-3 -7 -15 -15 -28 -16
-21 -3 -22 -2 -11 12 16 19 44 21 39 4z"/>
<path d="M3241 4521 c-7 -5 -12 -14 -10 -20 2 -6 10 -2 17 9 14 22 13 23 -7
11z"/>
<path d="M3280 4526 c0 -2 7 -7 16 -10 8 -3 12 -2 9 4 -6 10 -25 14 -25 6z"/>
<path d="M3291 4457 c-28 -28 3 -108 54 -141 38 -25 47 -10 20 31 -29 42 -30
49 -10 57 20 7 19 26 0 26 -9 0 -18 6 -21 14 -8 20 -29 27 -43 13z"/>
<path d="M1503 4444 c-3 -8 -12 -13 -19 -10 -11 4 -11 0 1 -18 14 -21 14 -28
2 -58 -8 -19 -22 -42 -31 -51 -33 -33 -10 -38 29 -7 47 37 53 50 54 113 1 36
-3 47 -14 47 -9 0 -18 -7 -22 -16z"/>
<path d="M3139 4442 c-4 -65 16 -159 46 -222 33 -70 40 -80 51 -80 7 0 15 -7
18 -16 4 -10 15 -14 32 -12 23 3 27 8 30 41 4 44 -17 83 -48 93 -31 10 -85 70
-98 110 -7 20 -10 48 -7 64 4 19 2 30 -8 34 -10 3 -15 -1 -16 -12z"/>
<path d="M1662 4367 c-7 -20 -40 -66 -72 -102 -63 -68 -66 -77 -50 -119 12
-34 30 -33 61 3 31 35 82 185 77 226 l-3 29 -13 -37z"/>
<path d="M1775 4389 c-4 -6 -5 -12 -2 -15 2 -3 7 2 10 11 7 17 1 20 -8 4z"/>
<path d="M1815 4389 c-4 -6 -5 -12 -2 -15 2 -3 7 2 10 11 7 17 1 20 -8 4z"/>
<path d="M1838 4370 c-7 -16 -19 -30 -27 -30 -8 0 -1 -12 17 -30 18 -16 36
-30 42 -30 16 0 25 4 23 11 -1 3 29 15 67 28 38 12 73 27 76 33 5 8 1 9 -12 3
-38 -17 -131 5 -149 35 -11 18 -23 11 -37 -20z"/>
<path d="M3405 4371 c-3 -5 -1 -12 5 -16 5 -3 10 1 10 9 0 18 -6 21 -15 7z"/>
<path d="M2085 4346 c-6 -6 -10 -20 -10 -31 0 -28 -32 -31 -40 -5 -5 16 -10
19 -18 11 -7 -7 -6 -16 5 -28 18 -20 10 -32 -27 -47 -13 -5 -16 -10 -7 -13 6
-3 32 6 56 20 25 14 47 22 50 19 19 -18 53 -7 73 24 19 30 20 34 5 46 -10 8
-13 9 -9 1 4 -6 3 -14 -3 -18 -5 -3 -10 -2 -10 4 0 6 -7 8 -16 4 -10 -4 -22 0
-28 9 -8 11 -14 12 -21 4z"/>
<path d="M2595 4345 c4 -11 13 -35 19 -52 7 -18 15 -36 19 -39 13 -13 7 -41
-12 -66 l-20 -25 31 2 c16 1 34 8 39 16 13 21 11 49 -5 55 -18 7 -14 39 5 39
8 0 26 11 39 24 23 22 23 23 4 17 -24 -7 -56 2 -49 14 3 5 -4 6 -15 3 -12 -3
-29 2 -42 13 -21 19 -21 19 -13 -1z"/>
<path d="M2980 4241 c0 -29 -19 -36 -36 -15 -14 17 -15 17 -10 2 4 -15 -1 -18
-28 -18 -19 0 -36 5 -38 12 -2 6 -14 13 -27 15 -33 5 -16 -14 32 -36 59 -27
122 -42 141 -35 9 3 22 1 29 -5 11 -9 14 0 14 44 0 30 -4 55 -9 55 -4 0 -8 -6
-8 -13 0 -13 -39 -41 -47 -34 -2 3 0 15 7 26 9 17 8 21 -5 21 -8 0 -15 -9 -15
-19z"/>
<path d="M2012 4200 c-24 -22 -63 -48 -88 -60 -24 -12 -42 -26 -38 -31 3 -5
12 -5 22 0 16 8 105 15 180 14 17 0 32 4 32 8 0 5 -7 9 -15 9 -18 0 -49 45
-40 59 3 6 2 17 -2 25 -6 11 -17 6 -51 -24z"/>
<path d="M2148 4233 c-22 -6 -31 -32 -17 -50 18 -21 34 -10 34 25 0 18 0 31 0
31 0 -1 -7 -3 -17 -6z"/>
<path d="M1345 4207 c-4 -12 -1 -36 5 -52 12 -29 12 -30 21 -7 4 12 6 28 3 36
-3 7 3 16 13 20 15 6 15 8 3 16 -24 16 -39 11 -45 -13z"/>
<path d="M3472 4217 c-7 -8 -6 -18 4 -31 8 -11 14 -35 14 -53 0 -18 4 -33 9
-33 9 0 31 117 23 125 -10 9 -40 5 -50 -8z"/>
<path d="M2737 4190 c-5 -22 -12 -30 -29 -31 -18 0 -16 -3 12 -13 47 -17 204
-30 195 -16 -3 5 -15 10 -25 10 -11 0 -45 18 -76 40 -32 22 -61 40 -64 40 -4
0 -10 -13 -13 -30z"/>
<path d="M2395 4190 c3 -5 8 -10 11 -10 2 0 4 5 4 10 0 6 -5 10 -11 10 -5 0
-7 -4 -4 -10z"/>
<path d="M3360 4181 c0 -6 4 -13 10 -16 6 -3 7 1 4 9 -7 18 -14 21 -14 7z"/>
<path d="M2165 4140 c-4 -6 12 -10 40 -10 28 0 44 4 40 10 -3 6 -21 10 -40 10
-19 0 -37 -4 -40 -10z"/>
<path d="M2630 4140 c0 -5 5 -10 11 -10 5 0 7 5 4 10 -3 6 -8 10 -11 10 -2 0
-4 -4 -4 -10z"/>
<path d="M3340 4111 c0 -6 5 -13 10 -16 6 -3 10 1 10 9 0 9 -4 16 -10 16 -5 0
-10 -4 -10 -9z"/>
<path d="M3285 4070 c-3 -5 -1 -10 4 -10 6 0 11 5 11 10 0 6 -2 10 -4 10 -3 0
-8 -4 -11 -10z"/>
<path d="M2228 4063 c7 -3 16 -2 19 1 4 3 -2 6 -13 5 -11 0 -14 -3 -6 -6z"/>
<path d="M1977 4053 c-2 -1 -17 -3 -35 -5 -18 -1 -32 -5 -32 -9 0 -7 76 -3
185 11 57 7 56 7 -28 7 -48 -1 -89 -2 -90 -4z"/>
<path d="M3012 4024 c4 -3 21 -8 39 -11 18 -2 44 -10 58 -16 14 -6 33 -11 41
-11 8 -1 15 -6 15 -13 0 -15 35 -42 55 -43 13 0 13 1 0 10 -21 14 3 13 37 -2
35 -14 39 -15 64 -17 18 -1 19 -4 9 -16 -10 -12 -6 -15 28 -21 24 -4 39 -11
36 -18 -2 -6 11 -20 31 -30 19 -11 35 -22 35 -26 0 -4 10 -10 22 -14 22 -5 22
-6 4 -19 -18 -13 -18 -14 7 -21 28 -7 35 -24 16 -43 -7 -7 -2 -13 18 -20 15
-6 39 -20 53 -32 22 -19 18 -18 -26 5 -47 24 -54 25 -73 12 -22 -15 -22 -15 9
-28 23 -10 28 -15 18 -21 -11 -7 -11 -11 1 -18 16 -11 53 -2 45 11 -3 5 -13 4
-22 -4 -13 -11 -15 -11 -10 3 4 9 1 22 -5 28 -24 24 2 20 32 -4 38 -32 39 -41
6 -49 -14 -4 -25 -10 -25 -14 0 -12 51 -39 88 -47 17 -3 32 -11 32 -16 0 -12
-12 -11 -44 1 -14 5 -41 10 -60 12 -19 1 -32 6 -30 10 3 4 -8 8 -25 8 -17 0
-47 11 -67 25 -20 14 -43 25 -51 25 -8 0 -29 6 -46 14 -70 30 -90 37 -94 33
-2 -3 17 -15 42 -27 35 -17 43 -25 33 -32 -8 -5 -4 -6 14 -2 15 3 35 1 45 -5
12 -7 13 -10 4 -11 -9 0 -4 -9 13 -25 14 -13 26 -31 26 -40 0 -8 4 -15 9 -15
5 0 12 -8 15 -18 4 -11 17 -25 31 -32 14 -7 34 -31 45 -53 l21 -40 -35 21
c-20 12 -36 17 -36 12 0 -4 5 -10 12 -12 8 -3 9 -6 1 -11 -6 -4 -22 4 -37 18
-16 15 -33 22 -43 18 -9 -4 -21 0 -27 9 -10 13 -119 73 -176 96 -69 28 -262
32 -292 5 -11 -9 -18 -11 -23 -4 -4 7 -12 8 -24 1 -10 -5 -21 -7 -24 -3 -4 3
-14 0 -24 -8 -15 -12 -16 -12 -10 4 9 23 -6 22 -28 -3 -10 -11 -24 -20 -31
-20 -7 0 -27 -20 -44 -45 -17 -25 -42 -48 -55 -51 -14 -3 -25 -14 -27 -27 -2
-15 -11 -22 -28 -24 -43 -2 -45 -3 -30 -14 12 -9 11 -10 -7 -6 -24 5 -40 -7
-23 -18 18 -11 0 -26 -23 -20 -18 5 -19 4 -7 -4 13 -10 13 -12 0 -21 -13 -8
-12 -10 4 -10 12 0 16 -5 12 -15 -6 -17 19 -21 29 -5 3 6 12 10 18 9 9 0 9 -2
0 -6 -7 -2 -13 -15 -13 -28 0 -34 -10 -55 -26 -55 -17 0 -18 -16 -3 -59 8 -24
17 -31 37 -32 22 0 23 -2 9 -8 -15 -6 -13 -9 17 -24 25 -11 37 -13 42 -5 5 7
11 5 20 -6 7 -10 16 -16 21 -13 11 7 34 -19 25 -28 -4 -4 4 -2 16 4 13 7 26
10 30 7 3 -3 0 -6 -7 -6 -7 0 0 -13 16 -30 32 -34 45 -38 37 -12 -5 16 -5 16
9 -1 9 -10 21 -15 31 -11 11 4 26 -2 40 -15 18 -17 26 -19 31 -10 5 7 4 10 -1
6 -6 -3 -15 3 -22 14 -7 10 -8 19 -3 19 6 0 12 -4 16 -9 3 -6 13 -10 23 -11
52 -2 70 -6 66 -12 -3 -4 5 -12 17 -18 15 -8 19 -9 15 -1 -4 6 -1 11 8 11 8 0
18 -4 21 -10 8 -13 42 -13 47 -1 4 13 72 18 78 6 3 -6 -26 -14 -70 -21 -67 -9
-71 -11 -40 -17 19 -4 81 -6 137 -4 95 2 102 4 107 23 3 12 15 24 25 27 26 6
34 -2 19 -20 -9 -11 -9 -17 3 -24 8 -5 20 -7 27 -4 6 2 12 0 12 -5 0 -5 14 -4
33 2 17 5 40 10 50 10 10 -1 15 4 11 10 -4 7 -2 8 5 4 6 -4 18 0 27 8 8 9 20
16 25 16 13 0 11 -27 -2 -36 -8 -4 -7 -9 2 -15 11 -7 12 -12 2 -28 -13 -20 -8
-31 14 -31 8 0 13 6 11 14 -2 8 5 21 15 28 10 8 20 22 21 33 2 11 9 19 16 17
8 -2 10 5 6 22 -5 20 1 32 31 60 32 30 36 38 23 46 -13 9 -12 13 5 28 24 20
26 49 5 63 -13 8 -13 11 1 22 14 11 14 14 -2 31 -12 12 -17 27 -13 41 3 13 1
26 -5 29 -5 4 -8 13 -4 21 3 8 0 15 -6 15 -6 0 -11 4 -11 9 0 14 40 4 61 -15
10 -9 16 -20 14 -25 -3 -4 -1 -10 5 -14 5 -3 10 -14 10 -23 1 -9 14 -33 30
-52 17 -19 30 -39 30 -45 1 -5 19 -23 42 -38 29 -21 37 -31 28 -37 -10 -6 -8
-15 6 -39 15 -26 16 -33 5 -40 -11 -7 -10 -14 5 -37 10 -16 23 -32 28 -35 5
-4 6 -14 3 -22 -3 -9 1 -21 9 -27 21 -18 17 -32 -5 -20 -33 17 -34 11 -2 -21
17 -17 31 -32 31 -34 0 -11 -36 12 -59 37 -20 22 -29 26 -41 17 -12 -9 -12
-10 4 -5 13 5 17 2 13 -9 -4 -8 4 -22 19 -34 14 -11 23 -25 19 -31 -3 -5 1
-10 9 -10 18 0 21 -16 5 -25 -7 -5 -5 -15 5 -30 11 -17 12 -25 4 -27 -7 -3 -9
-11 -3 -24 4 -10 9 -27 10 -37 1 -11 7 -22 14 -27 10 -6 10 -12 2 -29 -9 -17
-9 -20 3 -15 8 3 17 1 21 -5 3 -6 1 -11 -4 -11 -6 0 -11 -7 -11 -15 0 -8 -6
-15 -12 -16 -7 0 0 -6 16 -13 20 -9 25 -15 15 -19 -10 -4 -8 -8 8 -12 13 -4
20 -12 17 -17 -3 -5 2 -15 12 -22 13 -10 14 -15 4 -21 -9 -5 -11 -4 -6 3 4 7
1 12 -9 12 -33 0 -8 -23 46 -44 68 -26 113 -55 87 -55 -10 -1 -18 4 -18 9 0
16 -15 12 -41 -11 l-24 -21 24 7 c19 6 23 4 18 -9 -3 -8 0 -22 8 -30 8 -8 12
-22 9 -30 -3 -9 -1 -16 5 -16 6 0 11 -6 11 -14 0 -8 14 -16 32 -18 36 -6 68 0
68 12 0 5 -9 6 -20 3 -11 -3 -32 -2 -47 2 -21 5 -24 8 -12 16 7 5 24 9 37 9
25 0 28 12 10 32 -7 7 -13 27 -13 43 0 17 -4 33 -10 37 -5 4 -1 8 11 8 11 0
35 -11 54 -25 19 -14 38 -25 42 -25 8 0 21 -9 53 -37 23 -21 30 -15 30 24 0
51 26 54 105 14 68 -35 70 -35 70 -20 0 6 -18 18 -40 26 -45 18 -49 27 -20 45
33 21 23 25 -38 14 -33 -5 -68 -6 -78 -1 -10 4 -25 7 -32 6 -20 -3 -62 27 -62
44 0 8 -6 13 -12 11 -7 -1 -10 -1 -5 1 15 9 6 42 -14 48 -20 7 -20 8 7 26 l29
19 -39 0 c-31 0 -37 3 -32 16 4 10 -1 22 -11 30 -22 16 -42 19 -26 3 13 -13 5
-51 -11 -46 -6 2 -12 14 -14 26 -3 17 -8 21 -25 17 -14 -4 -11 0 8 10 28 14
29 15 4 10 -23 -5 -26 -3 -23 19 1 14 -4 32 -12 39 -8 8 -14 20 -14 26 0 6 -5
8 -12 4 -7 -5 -9 -2 -5 8 6 16 -12 91 -26 104 -4 4 -7 12 -7 18 0 6 7 2 15 -8
8 -11 18 -16 22 -13 4 4 1 13 -5 19 -7 7 -12 19 -12 28 0 8 -8 31 -19 50 -10
19 -17 46 -16 60 1 15 -6 30 -17 38 -18 13 -25 32 -10 32 4 0 23 -14 42 -30
36 -31 61 -41 41 -16 -6 8 -11 18 -9 22 3 13 -63 84 -78 84 -7 0 -16 4 -19 10
-4 6 11 8 39 5 63 -6 68 11 17 54 -23 20 -41 40 -41 45 0 5 10 0 23 -11 26
-24 57 -36 57 -23 0 6 -6 10 -12 10 -7 0 -34 20 -60 45 -37 35 -44 45 -29 45
11 0 22 -9 26 -19 5 -18 36 -39 34 -23 -4 22 3 31 19 26 9 -3 -4 8 -30 25 -27
17 -48 36 -48 41 0 16 20 12 26 -5 4 -8 10 -15 16 -15 10 0 -30 79 -47 93 -6
5 -1 6 10 4 11 -2 19 -7 18 -13 -1 -5 8 -10 20 -10 12 -1 33 -5 47 -9 l25 -8
-22 22 c-28 27 -29 31 -3 24 11 -3 20 -9 20 -13 0 -4 12 -11 28 -15 l27 -8
-25 -7 c-20 -6 -21 -8 -5 -8 11 0 29 3 40 7 19 8 19 8 -3 15 -16 6 -21 13 -17
26 4 13 0 20 -15 25 -11 3 -20 11 -20 16 0 5 -6 9 -14 9 -8 0 -17 12 -20 26
-8 32 2 46 15 21 7 -12 23 -17 53 -17 24 0 59 -6 77 -14 19 -7 52 -12 74 -10
22 1 46 3 53 3 27 2 10 21 -25 27 -21 3 -60 12 -88 20 -27 8 -79 19 -114 24
-117 17 -190 63 -331 214 -34 37 -69 99 -70 123 0 21 -58 80 -103 106 -23 13
-78 36 -122 52 -44 15 -89 31 -100 36 -74 31 -354 85 -333 63z m598 -325 c0
-6 -4 -7 -10 -4 -5 3 -10 11 -10 16 0 6 5 7 10 4 6 -3 10 -11 10 -16z m49 -57
c-12 -5 -39 17 -39 30 0 5 11 1 24 -9 13 -10 20 -20 15 -21z m65 -59 c7 -17
-24 -2 -44 22 -12 15 -11 15 13 4 14 -6 28 -18 31 -26z m-147 1 c-3 -3 -12 -4
-19 -1 -8 3 -5 6 6 6 11 1 17 -2 13 -5z m73 -36 c0 -6 -6 -5 -15 2 -8 7 -15
14 -15 16 0 2 7 1 15 -2 8 -4 15 -11 15 -16z m35 -18 c3 -5 1 -10 -4 -10 -6 0
-11 5 -11 10 0 6 2 10 4 10 3 0 8 -4 11 -10z m-665 -30 c0 -5 -15 -10 -32 -9
-28 0 -30 2 -13 9 28 12 45 12 45 0z m605 0 c3 -5 2 -10 -4 -10 -5 0 -13 5
-16 10 -3 6 -2 10 4 10 5 0 13 -4 16 -10z m-21 -15 c11 -8 27 -15 36 -15 9 0
25 -10 36 -21 19 -22 19 -22 -8 -17 -16 3 -28 1 -28 -3 0 -5 -7 -9 -15 -9 -8
0 -15 5 -15 10 0 6 6 10 13 10 8 0 7 4 -3 10 -21 13 -39 12 -20 -1 12 -9 12
-10 -3 -5 -10 3 -26 6 -35 6 -13 0 -14 2 -4 8 7 5 10 16 6 25 -8 21 14 22 40
2z m96 -15 c0 -5 -2 -10 -4 -10 -3 0 -8 5 -11 10 -3 6 -1 10 4 10 6 0 11 -4
11 -10z m-720 -10 c0 -5 -5 -10 -11 -10 -5 0 -7 5 -4 10 3 6 8 10 11 10 2 0 4
-4 4 -10z m-150 -30 c0 -5 -4 -10 -10 -10 -5 0 -10 5 -10 10 0 6 5 10 10 10 6
0 10 -4 10 -10z m796 -45 c-3 -8 11 -19 35 -28 25 -10 42 -25 49 -41 5 -14 15
-26 21 -26 7 0 10 -3 7 -6 -10 -9 -85 15 -99 33 -12 14 -11 15 11 8 23 -7 24
-6 10 10 -8 9 -23 21 -35 25 -11 4 -21 17 -22 28 -1 15 3 19 13 15 8 -3 13
-11 10 -18z m74 -1 c0 -2 -7 -4 -15 -4 -8 0 -15 4 -15 10 0 5 7 7 15 4 8 -4
15 -8 15 -10z m198 -49 c-3 -3 -9 2 -12 12 -6 14 -5 15 5 6 7 -7 10 -15 7 -18z
m-1106 -52 c-2 -32 1 -98 6 -148 5 -49 8 -92 6 -93 -1 -2 -21 7 -43 20 -23 14
-38 27 -35 31 3 3 3 11 -1 17 -6 9 -10 9 -15 -1 -7 -10 -11 -10 -24 0 -19 16
-21 37 -3 44 7 4 6 6 -5 6 -14 1 -15 6 -5 36 6 19 14 35 18 35 5 0 6 7 3 15
-4 9 0 15 10 15 9 0 16 8 16 19 0 24 25 45 45 37 9 -3 15 0 15 9 0 8 4 15 8
15 5 0 7 -26 4 -57z m748 16 c0 -6 9 -24 21 -40 13 -19 19 -38 15 -51 -3 -12
0 -28 6 -35 17 -21 0 -28 -21 -8 -11 9 -23 37 -27 61 -3 24 -10 47 -15 50 -15
9 -10 34 6 34 8 0 15 -5 15 -11z m150 -29 c35 -18 60 -40 45 -40 -12 0 -84 40
-90 50 -9 15 1 12 45 -10z m-650 -125 c0 -8 -6 -15 -14 -15 -17 0 -28 14 -19
24 12 12 33 6 33 -9z m861 -72 c13 -16 12 -17 -3 -4 -17 13 -22 21 -14 21 2 0
10 -8 17 -17z m59 -8 c7 -9 8 -15 2 -15 -5 0 -12 7 -16 15 -3 8 -4 15 -2 15 2
0 9 -7 16 -15z m-936 -16 c-7 -11 -34 -12 -34 -1 0 14 11 21 26 15 8 -3 11 -9
8 -14z m916 -19 c0 -5 -4 -10 -10 -10 -5 0 -10 5 -10 10 0 6 5 10 10 10 6 0
10 -4 10 -10z m-760 -94 c0 -33 -132 -55 -202 -33 -49 15 -49 29 0 25 25 -2
36 1 35 10 -4 17 16 15 23 -2 12 -32 95 -24 117 11 9 15 27 8 27 -11z m87 18
c-3 -3 -12 -4 -19 -1 -8 3 -5 6 6 6 11 1 17 -2 13 -5z m40 -10 c-3 -3 -12 -4
-19 -1 -8 3 -5 6 6 6 11 1 17 -2 13 -5z m73 -14 c0 -11 -65 -30 -100 -29 -17
0 -7 6 30 19 65 22 70 23 70 10z m537 -5 c8 -8 13 -19 11 -24 -2 -5 -11 2 -21
15 -20 27 -14 32 10 9z m-662 -5 c-3 -5 -16 -10 -28 -10 -18 0 -19 2 -7 10 20
13 43 13 35 0z m255 -14 c0 -2 -8 -10 -17 -17 -16 -13 -17 -12 -4 4 13 16 21
21 21 13z m-230 -20 c0 -2 -13 -6 -29 -8 -17 -2 -28 -1 -25 4 5 8 54 12 54 4z
m681 -43 c11 -31 -5 -29 -26 3 -16 24 -16 26 1 22 9 -1 20 -13 25 -25z m9 -63
c0 -5 -5 -10 -11 -10 -5 0 -7 5 -4 10 3 6 8 10 11 10 2 0 4 -4 4 -10z m10 -60
c0 -5 -2 -10 -4 -10 -3 0 -8 5 -11 10 -3 6 -1 10 4 10 6 0 11 -4 11 -10z m85
-200 c3 -5 -1 -10 -9 -10 -9 0 -16 5 -16 10 0 6 4 10 9 10 6 0 13 -4 16 -10z
m-8 -64 c-3 -8 3 -22 14 -32 25 -23 24 -33 -2 -27 -12 4 -24 14 -26 24 -3 10
-12 20 -22 22 -12 3 -10 6 9 15 33 14 33 14 27 -2z m-17 -66 c0 -5 6 -7 14 -4
8 3 25 0 37 -6 20 -11 20 -13 5 -22 -9 -5 -15 -12 -12 -16 2 -4 -7 -7 -20 -7
-16 0 -24 6 -24 18 0 9 -4 17 -10 17 -5 0 -10 7 -10 15 0 8 5 15 10 15 6 0 10
-4 10 -10z m107 -79 c15 -23 1 -32 -40 -24 -30 6 -36 29 -9 36 32 8 37 7 49
-12z m-84 2 c-7 -2 -19 -2 -25 0 -7 3 -2 5 12 5 14 0 19 -2 13 -5z m92 -153
c-28 -12 -37 -12 -30 0 3 6 16 10 28 9 21 0 21 -1 2 -9z"/>
<path d="M1190 3985 c0 -8 5 -15 10 -15 6 0 10 7 10 15 0 8 -4 15 -10 15 -5 0
-10 -7 -10 -15z"/>
<path d="M3415 3780 c3 -5 16 -10 28 -10 18 0 19 2 7 10 -20 13 -43 13 -35 0z"/>
<path d="M3430 3740 c0 -11 33 -30 51 -30 7 0 3 9 -9 20 -23 21 -42 26 -42 10z"/>
<path d="M3188 3653 c6 -2 18 -2 25 0 6 3 1 5 -13 5 -14 0 -19 -2 -12 -5z"/>
<path d="M3005 3600 c-3 -5 1 -10 9 -10 8 0 18 5 21 10 3 6 -1 10 -9 10 -8 0
-18 -4 -21 -10z"/>
<path d="M2813 3590 c-13 -5 -23 -16 -23 -25 0 -13 6 -11 30 7 41 30 39 36 -7
18z"/>
<path d="M2913 3580 c-35 -14 -27 -20 10 -8 17 6 34 13 36 14 8 7 -24 3 -46
-6z"/>
<path d="M3238 3563 c7 -3 16 -2 19 1 4 3 -2 6 -13 5 -11 0 -14 -3 -6 -6z"/>
<path d="M2960 3550 c-13 -8 -13 -10 2 -10 9 0 20 5 23 10 8 13 -5 13 -25 0z"/>
<path d="M2815 3540 c-3 -5 -1 -10 4 -10 6 0 11 5 11 10 0 6 -2 10 -4 10 -3 0
-8 -4 -11 -10z"/>
<path d="M3185 3539 c6 -9 122 -69 134 -69 13 1 -47 42 -88 60 -50 23 -55 24
-46 9z"/>
<path d="M2735 3520 c4 -6 11 -8 16 -5 14 9 11 15 -7 15 -8 0 -12 -5 -9 -10z"/>
<path d="M3410 3461 c0 -5 5 -13 10 -16 6 -3 10 -2 10 4 0 5 -4 13 -10 16 -5
3 -10 2 -10 -4z"/>
<path d="M3345 3450 c3 -5 16 -15 28 -21 22 -12 22 -12 3 10 -19 21 -43 30
-31 11z"/>
<path d="M2647 3409 c-4 -16 -3 -18 9 -8 16 13 19 29 5 29 -5 0 -11 -9 -14
-21z"/>
<path d="M4317 3363 c-4 -3 -7 -12 -7 -20 0 -11 5 -11 20 -3 14 7 20 7 20 0 0
-5 -4 -10 -9 -10 -5 0 -12 -7 -15 -16 -4 -12 -2 -15 9 -10 9 3 15 0 15 -11 0
-12 3 -13 15 -3 19 16 37 3 30 -21 -4 -12 -2 -19 6 -19 7 0 5 -8 -7 -22 -19
-21 -19 -21 4 -16 31 8 28 1 -8 -17 -18 -9 -28 -21 -24 -27 4 -6 3 -8 -3 -5
-25 16 -168 -82 -147 -101 3 -4 9 -1 11 6 3 6 16 12 30 12 14 0 47 13 74 30
30 18 46 24 42 15 -3 -9 -16 -18 -29 -21 -13 -3 -24 -10 -24 -15 0 -5 -7 -9
-15 -9 -8 0 -15 -3 -15 -7 0 -5 -16 -19 -36 -33 -22 -14 -31 -26 -24 -28 8 -3
0 -10 -16 -18 -23 -10 -25 -13 -9 -14 17 0 18 -2 5 -13 -8 -7 -21 -20 -28 -29
-12 -15 -10 -16 21 -11 20 3 37 1 41 -6 13 -21 61 -12 85 15 15 17 29 24 42
21 10 -3 19 -1 19 4 0 12 -47 11 -55 -1 -9 -15 -25 -12 -25 5 0 16 8 18 117
35 40 7 82 9 94 5 18 -6 21 -4 15 10 -4 13 -2 16 9 11 10 -4 15 1 15 14 0 11
7 20 15 20 18 0 20 -17 3 -22 -7 -3 25 -4 71 -4 71 1 84 -1 93 -17 13 -25 10
-27 -42 -17 -25 5 -54 9 -65 9 -20 0 -20 0 -1 -14 11 -8 30 -15 42 -15 13 0
25 -4 29 -9 10 -17 -68 0 -97 20 -36 25 -43 24 -18 -3 15 -17 17 -24 8 -31 -8
-5 -4 -6 12 -2 23 6 24 5 6 -9 -10 -8 -15 -20 -11 -25 10 -17 -20 -41 -51 -41
l-27 0 23 -25 c27 -29 23 -31 -25 -11 -18 8 -36 12 -39 9 -10 -10 -45 28 -39
42 4 11 9 12 23 3 10 -7 17 -16 14 -20 -3 -4 2 -5 10 -2 17 7 21 20 8 28 -4 2
-25 7 -46 11 -28 6 -37 5 -32 -4 4 -6 3 -11 -3 -11 -5 0 -12 4 -15 8 -3 5 -26
6 -51 2 -46 -7 -73 -20 -40 -20 14 0 12 -4 -10 -21 -20 -17 -29 -19 -35 -9 -5
8 -9 9 -14 1 -4 -6 -3 -11 3 -11 11 0 7 -30 -9 -59 -9 -19 -8 -21 14 -21 26 0
43 -15 27 -24 -5 -4 -8 -14 -6 -24 1 -9 -2 -22 -7 -29 -5 -7 -5 -14 1 -17 6
-4 6 -18 0 -39 -5 -17 -9 -33 -9 -34 0 -1 7 0 15 3 18 7 20 -7 3 -26 -11 -12
-10 -12 5 -1 9 8 20 12 23 9 7 -8 -36 -78 -49 -78 -6 0 -7 -3 -4 -6 4 -4 18 1
32 10 23 15 28 15 47 1 13 -8 32 -15 43 -15 17 0 18 2 5 11 -12 9 -12 10 3 5
10 -3 23 -6 28 -6 17 0 -25 -38 -55 -50 -44 -16 -27 -20 44 -10 36 5 85 9 110
8 l45 -1 -40 -6 -40 -6 43 -8 c24 -4 52 -13 62 -20 20 -12 27 -37 11 -37 -5 0
-7 -9 -4 -20 6 -21 13 -23 79 -20 42 1 67 -16 44 -30 -7 -4 -10 -12 -6 -18 3
-6 -3 -17 -14 -25 -18 -13 -20 -22 -16 -81 6 -76 -1 -80 -54 -41 -41 30 -60
33 -35 5 10 -11 49 -35 88 -54 l69 -33 68 28 c153 62 284 161 347 262 14 23
46 66 70 95 49 58 60 98 49 177 -6 38 -18 57 -69 112 -34 36 -97 93 -140 127
-43 34 -106 82 -139 109 -39 30 -68 45 -79 42 -9 -3 -30 -7 -47 -9 -24 -4 -29
-1 -25 13 3 13 12 16 34 13 38 -6 37 3 -2 24 -17 9 -66 42 -108 75 -131 102
-223 165 -297 203 -73 37 -86 41 -97 29z m167 -227 c-4 -11 -81 -46 -101 -46
-18 0 48 41 87 53 8 3 16 6 17 6 1 1 0 -5 -3 -13z m72 -1 c-11 -8 -26 -15 -34
-15 -7 0 -10 -4 -7 -10 3 -5 1 -10 -6 -10 -7 0 -32 -9 -56 -21 -23 -11 -51
-19 -60 -17 -20 4 67 48 95 48 8 0 12 3 8 7 -4 4 10 13 31 19 50 16 51 16 29
-1z m-233 -12 c-7 -2 -19 -2 -25 0 -7 3 -2 5 12 5 14 0 19 -2 13 -5z m190 -60
c-20 -7 -15 -23 5 -16 11 3 8 -1 -7 -12 -18 -13 -25 -15 -31 -5 -6 9 -13 9
-28 1 -21 -11 -92 -11 -92 0 0 9 30 20 39 15 4 -3 29 1 57 9 49 13 80 18 57 8z
m212 -3 c-3 -5 -13 -10 -21 -10 -8 0 -12 5 -9 10 3 6 13 10 21 10 8 0 12 -4 9
-10z m-390 -10 c-3 -5 -14 -10 -23 -10 -15 0 -15 2 -2 10 20 13 33 13 25 0z
m15 -30 c0 -11 -48 -25 -57 -16 -4 3 1 6 10 6 10 0 17 5 17 10 0 6 7 10 15 10
8 0 15 -4 15 -10z m-54 -69 c-8 -12 -55 -20 -61 -10 -3 4 7 10 22 12 16 2 32
5 36 6 5 0 6 -3 3 -8z m644 1 c0 -4 -9 -8 -20 -8 -11 0 -20 4 -20 8 0 4 9 8
20 8 11 0 20 -4 20 -8z m-335 -132 c3 -6 -1 -7 -9 -4 -18 7 -21 14 -7 14 6 0
13 -4 16 -10z m73 -67 c-21 -2 -38 -9 -38 -14 0 -6 -5 -7 -10 -4 -21 13 2 25
43 23 l42 -1 -37 -4z m35 -53 c-5 -20 -23 -26 -36 -13 -9 8 12 33 28 33 8 0
11 -8 8 -20z m-103 -115 c0 -2 -9 -9 -20 -15 -12 -6 -20 -7 -20 -1 0 5 8 12
18 14 9 3 18 5 20 6 1 0 2 -1 2 -4z m0 -135 c8 -5 12 -12 8 -15 -9 -9 -48 4
-48 16 0 12 21 11 40 -1z m80 0 c-19 -13 -30 -13 -30 0 0 6 10 10 23 10 18 0
19 -2 7 -10z m27 -26 c-3 -3 -12 -4 -19 -1 -8 3 -5 6 6 6 11 1 17 -2 13 -5z
m123 -224 c0 -5 -7 -10 -16 -10 -8 0 -12 5 -9 10 3 6 10 10 16 10 5 0 9 -4 9
-10z"/>
<path d="M1090 3346 c0 -2 7 -6 15 -10 8 -3 15 -1 15 4 0 6 -7 10 -15 10 -8 0
-15 -2 -15 -4z"/>
<path d="M1040 3330 c12 -8 11 -10 -7 -10 -15 0 -21 -5 -17 -15 5 -11 -2 -13
-33 -10 -23 2 -16 0 16 -7 40 -8 56 -9 59 0 2 6 9 9 17 6 24 -9 5 -36 -21 -30
-12 3 -26 2 -29 -4 -3 -5 -17 -10 -31 -10 -13 0 -24 -4 -24 -10 0 -5 -3 -9 -7
-8 -13 2 -106 -42 -138 -66 -48 -36 -56 -39 -48 -20 4 12 2 15 -8 12 -26 -8
-62 -96 -67 -167 -5 -77 17 -217 47 -296 24 -63 70 -155 86 -175 7 -8 21 -38
30 -67 16 -50 18 -52 49 -48 l31 5 -32 -10 c-18 -6 -33 -13 -33 -15 0 -3 22
-56 49 -117 27 -62 52 -122 56 -133 6 -19 7 -19 17 -1 8 15 7 21 -6 28 -16 9
-16 11 -1 29 10 10 15 24 12 31 -2 7 -5 18 -7 23 -1 6 -6 15 -10 21 -6 6 -3
22 6 39 8 16 13 37 11 47 -3 10 -1 21 4 24 5 3 9 16 9 30 0 18 -6 24 -22 25
-19 1 -17 3 9 11 21 7 33 18 35 32 2 17 9 20 33 18 l30 -3 -23 17 c-22 15 -25
15 -43 -5 -11 -12 -26 -21 -34 -21 -23 0 -18 8 15 25 36 19 40 40 6 31 -32 -8
-56 2 -49 20 3 8 -1 14 -11 14 -9 0 -16 4 -16 10 0 5 6 7 13 4 13 -5 57 50 70
86 4 12 6 12 6 -2 2 -34 31 -7 31 28 0 39 16 45 30 12 5 -13 9 -18 9 -13 1 6
14 19 30 28 l30 17 -3 -47 c-2 -27 1 -70 6 -97 5 -31 4 -64 -3 -89 -8 -30 -8
-46 2 -63 10 -19 9 -28 -5 -49 -16 -25 -16 -26 10 -35 17 -7 24 -15 20 -25 -3
-8 0 -15 7 -15 7 0 3 -7 -7 -15 -19 -15 -19 -15 1 -15 24 0 43 -22 25 -28 -7
-2 -12 -11 -11 -20 0 -11 2 -12 6 -4 2 6 9 12 14 12 4 0 6 -7 3 -15 -4 -8 -1
-15 5 -15 6 0 11 -4 11 -10 0 -5 -9 -10 -20 -10 -11 0 -20 -4 -20 -8 0 -12 30
-8 57 6 28 15 40 15 25 0 -15 -15 -16 -32 -2 -23 6 3 10 1 10 -4 0 -8 7 -7 19
1 11 7 17 16 15 20 -3 4 -1 8 5 8 15 0 9 -43 -8 -60 -13 -13 -14 -13 -9 1 5
12 1 17 -15 17 -12 0 -26 1 -32 2 -23 5 -35 -1 -35 -17 0 -15 2 -16 10 -3 5 8
10 11 10 5 0 -19 -20 -40 -27 -30 -9 12 -28 13 -39 2 -11 -11 -26 -8 -18 4 4
7 -1 10 -11 7 -22 -4 -62 -71 -46 -76 6 -2 11 -10 11 -18 0 -8 6 -17 14 -20 9
-3 12 -12 9 -22 -5 -11 -2 -14 9 -9 21 8 48 -23 48 -56 0 -39 16 -42 29 -5 11
30 12 31 28 15 15 -14 16 -21 5 -37 -9 -15 -9 -19 0 -18 12 3 13 -4 19 -145 2
-56 8 -92 16 -99 7 -6 13 -17 13 -24 0 -8 5 -14 10 -14 6 0 10 -7 10 -15 0 -9
6 -18 14 -21 8 -3 17 -16 20 -30 4 -15 14 -24 25 -24 11 0 22 -6 25 -12 3 -7
4 -4 3 8 -1 11 4 28 12 37 12 15 11 17 -6 17 -10 0 -24 -5 -31 -12 -10 -10
-11 -5 -6 22 3 19 7 41 10 48 2 6 -3 12 -11 12 -8 0 -15 7 -15 15 0 8 -5 15
-11 15 -5 0 -7 5 -4 10 3 6 2 10 -2 10 -14 0 -6 92 8 100 21 11 75 23 67 14
-4 -3 -3 -15 3 -26 8 -15 17 -18 35 -14 14 4 24 2 24 -5 0 -6 6 -17 13 -24 25
-28 33 -40 34 -48 2 -15 13 -21 13 -8 0 7 6 11 14 8 7 -3 19 0 25 6 10 9 10 6
2 -16 -6 -16 -7 -26 -2 -22 6 3 14 -3 20 -12 6 -10 11 -13 11 -8 0 11 60 16
60 5 0 -4 18 -8 41 -8 23 -1 44 -3 47 -6 3 -3 11 -1 19 5 8 7 13 8 13 1 0 -6
13 -7 35 -2 21 5 35 4 35 -2 0 -5 6 -6 13 -1 6 4 20 6 30 5 9 -2 17 0 17 5 0
12 58 14 65 3 9 -15 25 -12 25 5 0 14 34 38 55 40 6 1 9 6 7 13 -1 7 7 12 18
12 11 0 20 5 20 10 0 7 7 7 21 -1 17 -9 23 -8 30 2 8 12 10 12 18 0 6 -9 11
-10 15 -2 4 6 12 9 17 6 5 -4 9 0 10 7 0 7 7 -2 15 -19 8 -18 17 -33 20 -33 3
0 2 5 -2 12 -4 7 -3 8 4 4 7 -4 12 -16 12 -27 0 -10 5 -19 10 -19 14 0 12 27
-5 60 -9 18 -11 31 -5 35 6 3 10 3 10 -2 0 -14 47 -63 53 -56 4 3 2 12 -5 20
-16 20 7 43 25 24 10 -12 9 -13 -7 -7 -19 7 -19 6 -1 -14 10 -11 14 -20 9 -21
-13 -1 29 -18 46 -18 10 0 6 6 -10 19 l-25 20 33 -13 c26 -9 34 -9 41 1 4 7
15 10 24 6 12 -4 17 -1 17 10 0 9 8 16 20 16 11 0 20 3 20 8 0 4 4 13 9 21 7
11 14 9 34 -12 27 -30 42 -35 33 -11 -5 12 -2 15 10 10 9 -3 27 -9 40 -12 13
-3 24 -10 24 -14 0 -4 25 -7 55 -7 33 0 55 4 55 11 0 7 3 7 8 1 4 -5 30 -26
57 -45 28 -19 52 -38 53 -42 11 -25 82 3 82 31 0 6 5 11 11 11 6 0 9 6 6 14
-3 7 -1 18 5 24 6 6 6 16 0 28 -5 11 -7 25 -5 32 8 22 -7 62 -23 62 -9 0 -21
14 -27 30 -12 31 -34 43 -23 13 5 -14 3 -14 -9 2 -38 51 -58 68 -90 75 -23 5
-35 4 -35 -3 0 -5 -10 -2 -22 9 -21 19 -21 19 -14 0 5 -16 4 -17 -9 -6 -14 11
-19 7 -16 -13 1 -4 -8 -3 -20 4 -16 8 -23 8 -29 -1 -5 -8 -10 -9 -14 -2 -4 6
-13 9 -20 6 -8 -3 -17 0 -21 5 -3 6 -11 9 -16 6 -5 -4 -9 1 -9 9 0 10 -9 16
-23 16 -12 0 -33 7 -46 16 -22 16 -23 16 -12 -4 15 -28 14 -35 -3 -29 -8 3
-17 1 -20 -6 -2 -7 -5 -2 -5 11 -1 12 -7 23 -13 23 -7 1 -17 2 -23 4 -5 1 -16
3 -22 3 -7 1 -13 8 -13 16 0 7 -9 16 -20 19 -11 3 -20 12 -20 20 0 8 -7 17
-15 20 -11 5 -12 1 -5 -19 14 -37 12 -40 -10 -14 -11 13 -20 20 -20 15 0 -4
-7 -1 -16 6 -25 20 -55 22 -47 3 9 -23 -17 -13 -31 11 -6 11 -16 25 -23 32 -7
8 -10 19 -8 26 15 51 15 67 -2 67 -15 0 -15 2 3 15 18 14 18 14 -5 15 -22 0
-23 1 -8 24 12 17 13 26 4 35 -15 15 17 15 45 0 26 -14 39 3 35 50 -2 29 -6
35 -30 38 -29 4 -32 -2 -17 -41 12 -33 -12 -36 -33 -5 -21 29 -10 59 22 60
l26 1 -25 7 c-19 5 -25 14 -25 37 0 25 -4 29 -30 30 -49 2 -55 4 -55 14 0 5 6
7 14 4 11 -4 13 0 9 15 -3 12 -9 21 -14 21 -5 0 -9 7 -9 15 0 8 -7 15 -17 15
-9 0 -13 3 -9 8 4 4 13 7 19 7 7 0 12 12 13 28 1 17 -4 27 -13 27 -9 0 -12 6
-8 19 4 12 0 21 -12 26 -17 7 -17 8 2 15 17 7 17 9 3 9 -16 1 -23 12 -19 34 0
4 -3 7 -8 7 -5 0 -25 26 -45 58 -31 52 -105 128 -161 165 -52 35 -196 42 -423
21 -58 -5 -70 5 -53 48 5 14 6 31 1 38 -5 9 -4 20 2 27 16 19 3 41 -24 39 -13
-1 -29 4 -36 11 -8 7 -17 11 -22 8 -4 -3 -10 2 -14 10 -3 8 -12 15 -20 15 -10
0 -13 6 -10 15 4 8 2 15 -3 15 -15 0 -63 47 -56 54 4 3 1 6 -7 6 -10 0 -10 3
0 15 6 8 10 20 7 27 -4 8 -6 7 -6 -4 -1 -20 -16 -24 -27 -7 -5 8 -9 8 -14 -1
-9 -15 -30 -4 -30 16 0 8 -7 14 -15 14 -8 0 -15 -4 -15 -9 0 -5 -10 -7 -22 -3
-12 3 -17 7 -10 10 21 7 2 22 -26 22 -21 0 -24 -2 -12 -10z m5 -90 c3 -5 -1
-10 -9 -10 -9 0 -16 5 -16 10 0 6 4 10 9 10 6 0 13 -4 16 -10z m-272 -132 c-4
-7 -8 -15 -9 -18 -3 -19 -28 -58 -35 -54 -9 5 6 50 23 71 14 17 32 17 21 1z
m837 -157 c0 -5 -11 -16 -25 -25 -24 -16 -25 -15 -25 3 0 19 12 29 38 30 6 1
12 -3 12 -8z m-170 -21 c0 -5 -10 -10 -22 -9 -22 0 -22 1 -3 9 11 5 21 9 23 9
1 1 2 -3 2 -9z m-290 -20 c0 -5 -4 -10 -10 -10 -5 0 -10 5 -10 10 0 6 5 10 10
10 6 0 10 -4 10 -10z m650 -63 c0 -9 -5 -9 -32 3 -22 9 -21 9 5 7 15 -2 27 -6
27 -10z m70 -37 c0 -5 -7 -10 -15 -10 -8 0 -15 -5 -15 -12 0 -6 -3 -9 -6 -5
-11 10 4 37 21 37 8 0 15 -4 15 -10z m-260 -10 c0 -5 -5 -10 -11 -10 -5 0 -7
5 -4 10 3 6 8 10 11 10 2 0 4 -4 4 -10z m285 -40 c3 -5 4 -14 0 -20 -8 -13
-35 -1 -35 16 0 16 26 19 35 4z m-299 -38 c-8 -7 -56 -9 -56 -2 0 18 24 28 42
19 11 -6 17 -13 14 -17z m104 4 c0 -3 -4 -8 -10 -11 -5 -3 -10 -1 -10 4 0 6 5
11 10 11 6 0 10 -2 10 -4z m182 -48 c-6 -6 -15 -7 -22 -3 -8 5 -6 12 7 25 15
14 19 15 21 2 2 -8 -1 -19 -6 -24z m-632 17 c0 -8 -4 -15 -10 -15 -5 0 -10 7
-10 15 0 8 5 15 10 15 6 0 10 -7 10 -15z m240 -10 c0 -8 -4 -15 -10 -15 -5 0
-10 7 -10 15 0 8 5 15 10 15 6 0 10 -7 10 -15z m96 -12 c-10 -10 -19 5 -10 18
6 11 8 11 12 0 2 -7 1 -15 -2 -18z m-304 -10 c-5 -10 -7 -24 -4 -31 3 -9 -2
-13 -14 -10 -10 2 -20 12 -22 22 -3 14 0 17 12 13 10 -4 16 -1 16 8 0 8 5 15
10 15 7 0 7 -6 2 -17z m-286 -21 c-17 -16 -18 -16 -5 5 7 12 15 20 18 17 3 -2
-3 -12 -13 -22z m489 8 c-3 -5 -11 -10 -16 -10 -6 0 -7 5 -4 10 3 6 11 10 16
10 6 0 7 -4 4 -10z m123 -13 c2 -10 -3 -17 -12 -17 -10 0 -16 9 -16 21 0 24
23 21 28 -4z m12 -47 c0 -5 -5 -10 -11 -10 -5 0 -7 5 -4 10 3 6 8 10 11 10 2
0 4 -4 4 -10z m14 -41 c-3 -6 0 -15 7 -20 7 -4 10 -11 6 -15 -4 -4 -14 1 -22
12 -19 25 -19 34 1 34 8 0 12 -5 8 -11z m-159 -26 c-22 -16 -32 -16 -40 -3 -7
11 35 31 49 22 5 -3 1 -11 -9 -19z m211 -26 c-2 -7 -5 -4 -5 6 -1 9 -6 17 -12
17 -5 0 -7 5 -3 11 9 15 28 -16 20 -34z m-197 -29 c-9 -16 -14 -19 -17 -9 -2
7 2 17 9 22 20 13 21 11 8 -13z m211 -8 c0 -5 -5 -10 -11 -10 -5 0 -7 5 -4 10
3 6 8 10 11 10 2 0 4 -4 4 -10z m80 -15 c-14 -17 -40 -20 -40 -6 0 8 18 16 44
20 5 0 3 -6 -4 -14z m413 -72 c-7 -2 -21 -2 -30 0 -10 3 -4 5 12 5 17 0 24 -2
18 -5z m-6 -177 c-10 -26 -25 -18 -19 10 3 17 8 22 15 15 5 -5 7 -17 4 -25z
m-275 2 c-6 -6 -15 -8 -19 -4 -4 4 -1 11 7 16 19 12 27 3 12 -12z m-42 -8 c0
-5 -2 -10 -4 -10 -3 0 -8 5 -11 10 -3 6 -1 10 4 10 6 0 11 -4 11 -10z m120 0
c0 -5 -4 -10 -10 -10 -5 0 -10 5 -10 10 0 6 5 10 10 10 6 0 10 -4 10 -10z
m-40 -9 c0 -11 -26 -22 -34 -14 -12 12 -5 23 14 23 11 0 20 -4 20 -9z m-190
-107 c0 -8 -5 -12 -10 -9 -6 4 -8 11 -5 16 9 14 15 11 15 -7z m464 1 c-4 -8
-11 -12 -16 -9 -6 4 -5 10 3 15 19 12 19 11 13 -6z m-484 -48 c0 -5 -4 -5 -10
-2 -5 3 -10 14 -10 23 0 15 2 15 10 2 5 -8 10 -19 10 -23z m-475 -37 c3 -5 1
-10 -4 -10 -6 0 -11 5 -11 10 0 6 2 10 4 10 3 0 8 -4 11 -10z m72 -12 c-3 -8
-6 -5 -6 6 -1 11 2 17 5 13 3 -3 4 -12 1 -19z m421 -34 c16 -5 22 -14 22 -35
0 -18 -5 -29 -14 -29 -9 0 -12 7 -9 19 5 21 -28 38 -49 25 -9 -6 -9 -3 1 9 15
19 17 19 49 11z m188 -59 c23 -10 33 -19 28 -27 -6 -9 -9 -9 -12 0 -2 7 -13
12 -23 12 -13 0 -18 -4 -13 -12 4 -7 -2 -5 -14 6 -12 10 -19 23 -16 27 7 12 9
12 50 -6z m-551 -45 c-3 -5 -11 -10 -16 -10 -6 0 -7 5 -4 10 3 6 11 10 16 10
6 0 7 -4 4 -10z m380 -30 c3 -5 1 -10 -4 -10 -6 0 -11 5 -11 10 0 6 2 10 4 10
3 0 8 -4 11 -10z m787 -32 c-7 -7 -12 -8 -12 -2 0 14 12 26 19 19 2 -3 -1 -11
-7 -17z m88 -13 c0 -3 -9 -5 -20 -5 -11 0 -20 7 -20 15 0 13 4 14 20 5 11 -6
20 -13 20 -15z"/>
<path d="M4165 3270 c-3 -6 1 -7 9 -4 18 7 21 14 7 14 -6 0 -13 -4 -16 -10z"/>
<path d="M874 3261 c6 -10 -27 -43 -40 -40 -16 4 -44 -13 -55 -33 -7 -13 -7
-18 -1 -14 6 3 12 3 15 -1 2 -5 2 -2 0 5 -1 7 2 10 7 7 13 -8 90 52 90 71 0 8
-5 14 -11 14 -5 0 -8 -4 -5 -9z"/>
<path d="M940 3260 c-23 -7 -23 -8 -3 -9 12 -1 25 4 28 9 3 6 5 10 3 9 -2 -1
-14 -5 -28 -9z"/>
<path d="M4050 3230 c8 -5 20 -10 25 -10 6 0 3 5 -5 10 -8 5 -19 10 -25 10 -5
0 -3 -5 5 -10z"/>
<path d="M4347 3226 c-4 -10 -1 -13 9 -9 7 3 14 9 14 14 0 14 -17 10 -23 -5z"/>
<path d="M4184 3165 c-17 -13 -17 -14 -2 -15 9 0 20 5 23 11 11 17 0 20 -21 4z"/>
<path d="M4246 3165 c-8 -9 -19 -16 -23 -16 -13 -1 -17 -9 -5 -9 18 0 62 22
62 32 0 13 -17 9 -34 -7z"/>
<path d="M1410 3070 c0 -5 5 -10 10 -10 6 0 10 5 10 10 0 6 -4 10 -10 10 -5 0
-10 -4 -10 -10z"/>
<path d="M1450 3070 c-8 -5 -10 -10 -5 -10 6 0 17 5 25 10 8 5 11 10 5 10 -5
0 -17 -5 -25 -10z"/>
<path d="M3742 2985 c20 -14 43 -25 50 -25 22 1 -42 50 -65 50 -18 0 -16 -4
15 -25z"/>
<path d="M4042 2989 c2 -7 10 -15 17 -17 8 -3 12 1 9 9 -2 7 -10 15 -17 17 -8
3 -12 -1 -9 -9z"/>
<path d="M3815 2960 c3 -5 11 -10 16 -10 6 0 7 5 4 10 -3 6 -11 10 -16 10 -6
0 -7 -4 -4 -10z"/>
<path d="M3795 2940 c3 -5 16 -15 28 -21 22 -12 22 -12 3 10 -19 21 -43 30
-31 11z"/>
<path d="M4560 2940 c0 -5 5 -10 10 -10 6 0 10 5 10 10 0 6 -4 10 -10 10 -5 0
-10 -4 -10 -10z"/>
<path d="M4222 2894 c-11 -12 -9 -14 8 -14 11 0 20 4 20 9 0 17 -15 19 -28 5z"/>
<path d="M3775 2889 c-11 -17 1 -21 15 -4 8 9 8 15 2 15 -6 0 -14 -5 -17 -11z"/>
<path d="M3783 2853 c9 -2 17 -11 17 -19 0 -16 16 -19 25 -5 6 11 -26 32 -47
30 -7 -1 -5 -3 5 -6z"/>
<path d="M3285 2820 c-3 -5 1 -10 9 -10 9 0 16 5 16 10 0 6 -4 10 -9 10 -6 0
-13 -4 -16 -10z"/>
<path d="M3850 2820 c0 -5 5 -10 10 -10 6 0 10 5 10 10 0 6 -4 10 -10 10 -5 0
-10 -4 -10 -10z"/>
<path d="M2968 2813 c7 -3 16 -2 19 1 4 3 -2 6 -13 5 -11 0 -14 -3 -6 -6z"/>
<path d="M3135 2810 c27 -12 43 -12 25 0 -8 5 -22 9 -30 9 -10 0 -8 -3 5 -9z"/>
<path d="M3330 2805 c0 -16 16 -20 24 -6 3 5 -1 11 -9 15 -9 3 -15 0 -15 -9z"/>
<path d="M3300 2779 c0 -5 5 -7 10 -4 6 3 10 8 10 11 0 2 -4 4 -10 4 -5 0 -10
-5 -10 -11z"/>
<path d="M3090 2751 c-33 -6 -34 -7 -11 -15 16 -6 28 -3 39 8 9 9 14 15 12 15
-3 -1 -21 -5 -40 -8z"/>
<path d="M3520 2740 c0 -5 7 -7 15 -4 8 4 15 8 15 10 0 2 -7 4 -15 4 -8 0 -15
-4 -15 -10z"/>
<path d="M1013 2613 c-7 -2 -13 -17 -13 -31 l1 -27 19 24 c29 34 26 48 -7 34z"/>
<path d="M1110 2555 c-7 -8 -8 -15 -2 -15 5 0 15 7 22 15 7 8 8 15 2 15 -5 0
-15 -7 -22 -15z"/>
<path d="M4230 2480 c0 -5 10 -10 23 -10 18 0 19 2 7 10 -19 13 -30 13 -30 0z"/>
<path d="M2248 2443 c7 -3 16 -2 19 1 4 3 -2 6 -13 5 -11 0 -14 -3 -6 -6z"/>
<path d="M4568 2323 c7 -3 16 -2 19 1 4 3 -2 6 -13 5 -11 0 -14 -3 -6 -6z"/>
<path d="M1135 2309 c-11 -17 1 -21 15 -4 8 9 8 15 2 15 -6 0 -14 -5 -17 -11z"/>
<path d="M4478 2313 c7 -3 16 -2 19 1 4 3 -2 6 -13 5 -11 0 -14 -3 -6 -6z"/>
<path d="M2760 2240 c35 -27 102 -62 94 -49 -9 15 -95 69 -108 69 -6 0 0 -9
14 -20z"/>
<path d="M2280 2239 c0 -5 5 -7 10 -4 6 3 10 8 10 11 0 2 -4 4 -10 4 -5 0 -10
-5 -10 -11z"/>
<path d="M1015 2187 c-4 -10 -2 -23 5 -32 14 -17 30 -11 30 11 0 8 -4 13 -9 9
-5 -3 -11 3 -14 12 -4 17 -4 17 -12 0z"/>
<path d="M4062 2170 c14 -22 24 -19 15 5 -4 8 -11 15 -17 15 -6 0 -6 -7 2 -20z"/>
<path d="M4530 2186 c0 -2 7 -7 16 -10 8 -3 12 -2 9 4 -6 10 -25 14 -25 6z"/>
<path d="M1134 2157 c-6 -16 -36 -19 -45 -5 -11 17 -59 -38 -60 -68 -1 -29 -1
-29 -9 -4 l-7 25 -8 -29 c-4 -15 -4 -63 1 -105 4 -42 8 -165 9 -274 0 -108 3
-197 6 -197 11 0 19 29 13 45 -4 8 -1 22 5 29 7 8 11 20 10 28 -1 7 3 26 10
42 6 16 8 32 4 35 -4 3 -9 15 -10 26 -2 11 -5 32 -7 48 -2 15 1 30 6 33 5 4 5
10 0 17 -14 18 -7 117 12 161 19 45 19 49 6 41 -5 -3 -10 -1 -10 4 0 6 4 11 9
11 19 0 22 40 6 70 -20 39 -12 51 13 20 16 -20 19 -21 31 -6 9 11 10 16 2 16
-6 0 -11 5 -11 11 0 5 4 8 9 4 6 -3 15 4 21 15 6 11 8 20 5 20 -3 0 -8 -6 -11
-13z m-87 -202 c-4 -8 -14 -15 -23 -15 -16 0 -16 2 1 20 20 22 31 20 22 -5z"/>
<path d="M2240 2141 c0 -6 4 -13 10 -16 6 -3 7 1 4 9 -7 18 -14 21 -14 7z"/>
<path d="M4315 2140 c-16 -7 -13 -9 18 -9 20 -1 37 4 37 9 0 12 -27 12 -55 0z"/>
<path d="M4096 2091 c10 -10 29 -14 54 -12 13 1 13 2 0 11 -19 13 -67 13 -54
1z"/>
<path d="M4385 2014 l-30 -14 28 4 c25 3 28 1 23 -18 -3 -11 -6 -24 -6 -28 0
-4 -6 -5 -13 -2 -18 6 -67 -13 -67 -26 0 -5 10 -10 21 -10 20 0 21 -1 5 -25
-20 -30 -20 -30 0 -49 18 -19 11 -34 -21 -46 -16 -6 -22 -15 -19 -27 3 -11 -5
-28 -20 -42 -33 -31 -33 -41 1 -41 49 0 114 39 131 79 17 42 17 240 -1 257 -1
1 -15 -4 -32 -12z m5 -144 c-8 -5 -19 -10 -25 -10 -5 0 -3 5 5 10 8 5 20 10
25 10 6 0 3 -5 -5 -10z"/>
<path d="M3220 2000 c0 -5 5 -10 11 -10 5 0 8 -4 5 -9 -3 -5 1 -14 9 -21 8 -7
16 -9 16 -4 4 30 3 40 -6 46 -15 11 -35 10 -35 -2z"/>
<path d="M2707 1969 c7 -7 15 -10 18 -7 3 3 -2 9 -12 12 -14 6 -15 5 -6 -5z"/>
<path d="M1405 1770 c-3 -5 -2 -10 4 -10 5 0 13 5 16 10 3 6 2 10 -4 10 -5 0
-13 -4 -16 -10z"/>
<path d="M4358 1687 c-7 -7 -22 -16 -32 -20 -10 -4 -16 -10 -13 -13 7 -8 67
24 67 36 0 13 -6 13 -22 -3z"/>
<path d="M2105 1670 c-3 -5 -1 -10 4 -10 6 0 11 5 11 10 0 6 -2 10 -4 10 -3 0
-8 -4 -11 -10z"/>
<path d="M1023 1464 c-6 -16 4 -121 13 -135 3 -5 16 -1 29 8 25 20 24 33 -5
33 -23 0 -37 49 -18 62 10 7 10 11 1 14 -7 3 -9 12 -6 20 3 8 2 14 -1 14 -4 0
-9 -7 -13 -16z"/>
<path d="M1057 1311 c-17 -6 -18 -8 -3 -20 18 -15 29 -10 24 12 -2 9 -9 12
-21 8z"/>
</g>
</svg>
